<svg width="23" height="27" viewBox="0 0 23 27" fill="none" xmlns="http://www.w3.org/2000/svg">
<path d="M11.1211 20.3086C10.7487 20.6471 10.3763 20.6471 10.0039 20.3086L6.75391 17.0586C6.41536 16.6862 6.41536 16.3138 6.75391 15.9414C7.1263 15.6029 7.4987 15.6029 7.87109 15.9414L10.5625 18.582L15.6914 13.5039C16.0638 13.1654 16.4362 13.1654 16.8086 13.5039C17.1471 13.8763 17.1471 14.2487 16.8086 14.6211L11.1211 20.3086ZM6.5 3.5H16.25V1.0625C16.2839 0.554688 16.5547 0.283854 17.0625 0.25C17.5703 0.283854 17.8411 0.554688 17.875 1.0625V3.5H19.5C20.4141 3.53385 21.1758 3.85547 21.7852 4.46484C22.3945 5.07422 22.7161 5.83594 22.75 6.75V23C22.7161 23.9141 22.3945 24.6758 21.7852 25.2852C21.1758 25.8945 20.4141 26.2161 19.5 26.25H3.25C2.33594 26.2161 1.57422 25.8945 0.964844 25.2852C0.355469 24.6758 0.0338542 23.9141 0 23V6.75C0.0338542 5.83594 0.355469 5.07422 0.964844 4.46484C1.57422 3.85547 2.33594 3.53385 3.25 3.5H4.875V1.0625C4.90885 0.554688 5.17969 0.283854 5.6875 0.25C6.19531 0.283854 6.46615 0.554688 6.5 1.0625V3.5ZM1.625 23C1.625 23.474 1.77734 23.8633 2.08203 24.168C2.38672 24.4727 2.77604 24.625 3.25 24.625H19.5C19.974 24.625 20.3633 24.4727 20.668 24.168C20.9727 23.8633 21.125 23.474 21.125 23V10H1.625V23ZM1.625 6.75V8.375H21.125V6.75C21.125 6.27604 20.9727 5.88672 20.668 5.58203C20.3633 5.27734 19.974 5.125 19.5 5.125H3.25C2.77604 5.125 2.38672 5.27734 2.08203 5.58203C1.77734 5.88672 1.625 6.27604 1.625 6.75Z" fill="white"/>
</svg>
