<svg width="26" height="27" viewBox="0 0 26 27" fill="none" xmlns="http://www.w3.org/2000/svg">
<path d="M13.8125 13.25C13.8125 13.5208 13.694 13.7409 13.457 13.9102L8.58203 17.1602C8.14193 17.3971 7.76953 17.3294 7.46484 16.957C7.22786 16.5169 7.29557 16.1445 7.66797 15.8398L12.1875 12.793V5.9375C12.2214 5.42969 12.4922 5.15885 13 5.125C13.5078 5.15885 13.7786 5.42969 13.8125 5.9375V13.25ZM26 13.25C25.9661 15.6875 25.3737 17.8711 24.2227 19.8008C23.0716 21.7643 21.5143 23.3216 19.5508 24.4727C17.6211 25.6237 15.4375 26.2161 13 26.25C10.5625 26.2161 8.37891 25.6237 6.44922 24.4727C4.48568 23.3216 2.92839 21.7643 1.77734 19.8008C0.626302 17.8711 0.0338542 15.6875 0 13.25C0.0338542 10.8125 0.626302 8.62891 1.77734 6.69922C2.92839 4.73568 4.48568 3.17839 6.44922 2.02734C8.37891 0.876302 10.5625 0.283854 13 0.25C15.4375 0.283854 17.6211 0.876302 19.5508 2.02734C21.5143 3.17839 23.0716 4.73568 24.2227 6.69922C25.3737 8.62891 25.9661 10.8125 26 13.25ZM13 1.875C10.8672 1.90885 8.95443 2.43359 7.26172 3.44922C5.53516 4.43099 4.18099 5.78516 3.19922 7.51172C2.18359 9.20443 1.65885 11.1172 1.625 13.25C1.65885 15.3828 2.18359 17.2956 3.19922 18.9883C4.18099 20.7148 5.53516 22.069 7.26172 23.0508C8.95443 24.0664 10.8672 24.5911 13 24.625C15.1328 24.5911 17.0456 24.0664 18.7383 23.0508C20.4648 22.069 21.819 20.7148 22.8008 18.9883C23.8164 17.2956 24.3411 15.3828 24.375 13.25C24.3411 11.1172 23.8164 9.20443 22.8008 7.51172C21.819 5.78516 20.4648 4.43099 18.7383 3.44922C17.0456 2.43359 15.1328 1.90885 13 1.875Z" fill="white"/>
</svg>
