<svg width="200" height="231" viewBox="0 0 200 231" fill="none" xmlns="http://www.w3.org/2000/svg">
    <g clip-path="url(#clip0_160_12)">
        <path d="M99.9728 230.302L98.79 229.841C73.7964 219.797 53.4313 208.215 38.2603 195.352C24.735 183.873 15.0152 171.061 9.30684 157.327C0.564233 136.162 1.18136 112.742 11.1582 85.6841C23.1407 53.1424 3.80414 39.5107 2.98131 38.947L-0.00146484 36.8971L2.36418 34.1811L32.6547 -0.000549316L35.0204 2.10057C35.0718 2.15182 42.9402 9.01888 54.6141 12.3499C69.9908 16.7059 84.5447 13.2724 97.9157 2.04932L99.9728 0.306931L102.03 2.04932C115.452 13.3236 130.109 16.7571 145.537 12.2987C157.16 8.91639 164.822 2.20306 164.925 2.15182L167.291 0.0506975L199.999 36.9996L197.016 38.9982C196.142 39.562 176.856 53.2449 188.787 85.7353C198.713 112.794 199.33 136.213 190.587 157.378C184.93 171.112 175.211 183.873 161.634 195.403C146.463 208.266 126.149 219.899 101.104 229.893L99.9728 230.302ZM9.25541 35.9747C11.4668 38.0758 14.6553 41.6631 17.1752 46.839C21.0836 54.8335 24.2207 68.4651 17.1238 87.8364C7.76403 113.357 7.09548 135.291 15.221 154.918C26.4321 182.13 54.9741 205.243 99.9728 223.487C144.972 205.243 173.514 182.13 184.725 154.918C192.799 135.291 192.182 113.357 182.822 87.8364C175.725 68.4651 178.862 54.8848 182.77 46.839C185.29 41.6118 188.479 38.0758 190.69 35.9747L166.622 8.8139C163.177 11.3762 156.337 15.7322 147.286 18.3458C135.612 21.7281 118.127 22.6505 99.9214 8.50642C81.7676 22.6505 64.2824 21.7281 52.6085 18.3458C43.6087 15.7322 36.7689 11.325 33.2719 8.8139L9.25541 35.9747Z" fill="#D51820"/>
        <path d="M103.167 152.818H96.7905V173.163H103.167V152.818Z" fill="#D51820"/>
        <path d="M103.167 46.8909H96.7905V67.2358H103.167V46.8909Z" fill="#D51820"/>
        <path d="M99.0987 154.304C94.9331 154.304 90.8704 153.74 87.0648 152.613C83.3106 151.486 80.0193 149.794 77.2422 147.488C74.4652 145.182 72.151 142.312 70.4539 138.981C69.5282 137.137 68.8082 135.087 68.2939 132.832L74.5166 131.499C74.8766 133.191 75.4423 134.779 76.1109 136.112C77.448 138.674 79.145 140.878 81.305 142.62C83.4135 144.362 85.9848 145.695 88.9162 146.566C92.1047 147.54 95.5503 148.001 99.0987 148.001C103.11 148.001 106.916 147.591 110.464 146.72C113.601 145.951 116.378 144.772 118.59 143.235C120.647 141.8 122.292 139.955 123.527 137.598C124.915 135.035 125.532 132.268 125.327 129.398C125.069 125.504 123.372 122.941 119.104 119.815C117.047 118.278 114.424 116.894 111.133 115.51C107.738 114.127 104.396 112.794 101.259 111.667C98.0702 110.591 94.9331 109.361 91.9504 108.08C88.8133 106.747 85.9848 105.312 83.4135 103.826C80.3793 102.032 77.8594 100.034 75.9566 97.8302C73.3338 94.8067 71.8938 91.1169 71.8938 87.1197C71.8938 80.7138 74.8252 75.3842 80.3793 71.6944C85.0077 68.6196 91.0761 67.1334 98.9959 67.1334C105.476 67.1334 111.287 68.3121 116.275 70.6182C119.001 71.8994 123.989 75.0254 126.561 81.8413L120.595 84.0449C118.795 79.3302 115.453 77.1778 113.601 76.3578C109.436 74.4105 104.499 73.4368 98.9959 73.4368C92.4132 73.4368 87.4762 74.5642 83.9278 76.9216C80.1736 79.4327 78.2708 82.8662 78.2708 87.0684C78.2708 89.477 79.145 91.7831 80.7393 93.628C82.1792 95.3192 84.1849 96.8566 86.602 98.2915C88.9162 99.6239 91.539 100.956 94.4189 102.186C97.2474 103.416 100.282 104.544 103.367 105.62C106.659 106.798 110.053 108.131 113.55 109.566C117.304 111.103 120.338 112.743 122.858 114.588C126.921 117.56 131.189 121.609 131.652 128.886C131.909 132.986 131.086 136.88 129.081 140.519C127.332 143.747 125.069 146.258 122.189 148.308C119.258 150.358 115.813 151.844 111.853 152.767C107.944 153.843 103.624 154.304 99.0987 154.304Z" fill="#D51820"/>
    </g>
    <defs>
        <clipPath id="clip0_160_12">
            <rect width="200" height="230.303" fill="white"/>
        </clipPath>
    </defs>
</svg>
