<svg width="200" height="200" viewBox="0 0 200 200" fill="none" xmlns="http://www.w3.org/2000/svg">
    <g clip-path="url(#clip0_160_23)">
        <path d="M26.5396 97.1361C24.7725 97.1361 22.9268 96.6653 21.0811 95.7238C14.366 92.3107 10.0856 87.0929 8.31851 80.2275C6.59065 79.6783 5.21622 78.4229 4.35229 76.5006C2.97785 73.4798 2.38881 70.2628 2.58516 66.9674C2.74223 64.7312 3.88105 63.0051 5.64818 62.2205C5.45183 58.415 5.45183 54.6881 6.70846 50.9611C8.35778 45.9396 12.0099 42.8795 17.2327 42.0165C17.861 41.938 18.4108 41.8595 18.9213 41.8203C20.0209 39.5057 22.1807 38.368 25.4401 38.4464H25.8328C32.1159 38.8387 37.4173 41.0357 41.6191 45.0372C46.2922 49.4704 48.2164 55.2373 47.3918 62.1812C48.1379 62.5343 48.6877 62.9658 49.0803 63.3974C50.1799 64.5743 50.6904 66.222 50.6119 68.262C50.494 71.0474 50.0228 73.6759 49.1589 76.0298C48.7269 77.2459 47.5096 79.7567 44.7214 80.3844C42.6401 88.0345 37.8492 93.4091 30.388 96.3907C29.0921 96.9007 27.8355 97.1361 26.5396 97.1361ZM8.0829 67.1636C8.0829 67.2028 8.0829 67.242 8.0829 67.2813C7.92582 69.6744 8.35778 71.989 9.37879 74.1859C9.73222 74.9313 10.0071 74.9706 10.1642 74.9706C10.9888 75.0098 12.9523 75.4413 13.5021 78.0306C14.7195 83.7975 18.0181 87.956 23.5944 90.7807C25.3615 91.683 26.8538 91.8399 28.3067 91.2514C34.4328 88.8191 38.1241 84.4645 39.6164 77.9521C40.2447 75.0882 42.4045 74.9313 43.2684 74.9706C43.3863 74.9706 43.4648 74.9706 43.4648 74.9706C43.4648 74.9706 43.7004 74.8136 43.936 74.1075C44.6036 72.2244 44.9963 70.2236 45.0749 67.9874C45.0749 67.5559 45.0356 67.242 44.9963 67.1243C44.957 67.1243 44.8392 67.0851 44.7607 67.0851C43.347 67.0459 42.5616 66.3005 42.2474 65.8689C41.8155 65.3197 41.3835 64.3782 41.6977 63.0051C41.7369 62.9266 41.7369 62.8089 41.7369 62.6912C41.7369 62.5735 41.7762 62.4558 41.7762 62.3381C42.6401 56.7281 41.3442 52.3342 37.81 48.9211C34.5506 45.8219 30.5451 44.1742 25.5579 43.8603C25.4793 43.8603 25.3615 43.8603 25.283 43.8603C24.1442 43.8211 23.9478 44.0172 23.9478 44.0172C23.9478 44.0172 23.83 44.1349 23.7515 44.5665C23.6729 44.998 23.0446 47.1557 20.335 47.1557C20.2957 47.1557 20.2565 47.1557 20.2172 47.1557C19.5889 47.1557 18.9213 47.2342 18.0966 47.3519C14.8373 47.8619 12.9523 49.4704 11.9313 52.5696C10.871 55.7473 10.9888 59.1212 11.2245 62.9266C11.3815 66.1043 9.37879 66.9282 8.0829 67.1636ZM47.0776 64.2212C47.0776 64.2605 47.0776 64.2605 47.0776 64.2212C47.0776 64.2605 47.0776 64.2605 47.0776 64.2212Z" fill="#D51820"/>
        <path d="M5.49237 142.016H-0.00537109V109.886L16.1344 97.9992V91.4476H21.6322V100.785L5.49237 112.672V142.016Z" fill="#D51820"/>
        <path d="M173.567 97.1361C171.8 97.1361 169.954 96.6653 168.108 95.7238C161.393 92.3107 157.113 87.0929 155.346 80.2275C153.618 79.6783 152.243 78.4229 151.379 76.5006C150.005 73.4798 149.416 70.2628 149.612 66.9674C149.769 64.7312 150.908 63.0051 152.675 62.2205C152.479 58.415 152.479 54.6881 153.736 50.9611C155.385 45.9396 159.037 42.8795 164.26 42.0165C164.888 41.938 165.438 41.8595 165.948 41.8203C167.048 39.5057 169.208 38.368 172.467 38.4464H172.86C179.143 38.8387 184.444 41.0357 188.646 45.0372C193.319 49.4704 195.244 55.2373 194.419 62.1812C195.165 62.5343 195.715 62.9658 196.107 63.3974C197.207 64.5743 197.718 66.222 197.639 68.262C197.521 71.0474 197.05 73.6759 196.186 76.0298C195.754 77.2459 194.537 79.7567 191.749 80.3844C189.667 88.0345 184.876 93.4091 177.415 96.3907C176.119 96.9007 174.823 97.1361 173.567 97.1361ZM155.071 67.1636C155.071 67.2028 155.071 67.242 155.071 67.2813C154.914 69.6744 155.346 71.989 156.367 74.1859C156.72 74.9313 156.995 74.9706 157.152 74.9706C157.977 75.0098 159.94 75.4413 160.49 78.0306C161.707 83.7975 165.006 87.956 170.582 90.7807C172.349 91.683 173.842 91.8399 175.295 91.2514C181.421 88.8191 185.112 84.4645 186.604 77.9521C187.233 75.0882 189.392 74.9313 190.256 74.9706C190.374 74.9706 190.453 74.9706 190.453 74.9706C190.453 74.9706 190.688 74.8136 190.924 74.1075C191.591 72.2244 191.984 70.2236 192.063 67.9874C192.063 67.5559 192.023 67.242 191.984 67.1243C191.945 67.1243 191.827 67.0851 191.749 67.0851C190.335 67.0459 189.549 66.3005 189.235 65.8689C188.803 65.3197 188.371 64.3782 188.686 63.0051C188.725 62.9266 188.725 62.8089 188.725 62.6912C188.725 62.5735 188.764 62.4558 188.764 62.3381C189.628 56.6889 188.332 52.3342 184.798 48.9211C181.538 45.8219 177.533 44.1742 172.546 43.8603C172.467 43.8603 172.349 43.8603 172.271 43.8603C171.132 43.8211 170.936 44.0172 170.936 44.0172C170.936 44.0172 170.818 44.1349 170.739 44.5665C170.661 44.998 169.993 47.195 167.284 47.1557C166.655 47.1557 165.948 47.195 165.084 47.3519C161.825 47.8619 159.94 49.4704 158.919 52.5696C157.859 55.7473 157.977 59.1212 158.212 62.9266C158.369 66.1043 156.367 66.9282 155.071 67.1636ZM194.065 64.2212C194.065 64.2605 194.065 64.2605 194.065 64.2212C194.065 64.2605 194.065 64.2605 194.065 64.2212ZM191.945 61.632C191.984 61.632 191.984 61.632 191.945 61.632C191.984 61.632 191.984 61.632 191.945 61.632Z" fill="#D51820"/>
        <path d="M199.997 142.016H194.499V112.672L178.359 100.785V91.4476H183.857V97.9992L199.997 109.886V142.016Z" fill="#D51820"/>
        <path d="M99.703 94.3114C96.8755 94.3114 93.9696 93.6052 90.9851 92.1929C79.165 86.6221 71.7823 77.952 69.0334 66.4181C66.0097 65.9473 63.5749 64.0642 62.0827 61.0042C59.7265 56.218 58.7448 51.118 59.0589 45.9003C59.2946 42.3695 61.3366 39.8587 64.6352 39.074C64.2425 32.4048 64.0854 25.9316 66.3238 19.537C69.0334 11.7692 74.806 7.21842 83.4061 5.92379C84.9769 5.68841 86.3513 5.57071 87.6079 5.53148C89.7678 -0.157024 95.4226 -0.0393314 97.6609 -0.000100316C97.7395 -0.000100316 97.818 -0.000100316 97.9358 -0.000100316H98.2107H98.2893C109.088 0.627597 117.846 4.0407 125.071 10.4354C133.239 17.6931 136.459 27.3047 134.574 38.9956C136.145 39.3487 137.441 40.0548 138.423 41.1533C139.915 42.7618 140.622 45.0372 140.465 47.8618C140.268 52.3341 139.405 56.5319 137.952 60.3373C137.088 62.6127 134.967 66.2219 130.294 66.5358C126.956 79.3644 118.67 88.3483 105.633 93.2129C103.708 93.9583 101.745 94.3114 99.703 94.3114ZM88.3933 11.0238C87.176 11.0238 85.8408 11.1415 84.2307 11.3769C77.5942 12.3577 73.5494 15.5354 71.5074 21.3808C69.5439 26.9516 69.7403 32.7971 70.133 39.2702C70.2115 40.3687 70.4078 43.7425 66.1667 44.3702C65.185 44.5272 64.5959 44.841 64.5174 46.2533C64.2425 50.5295 65.0672 54.6488 66.9914 58.5719C68.0124 60.6511 69.3083 60.965 70.2115 61.0434C71.7037 61.1219 73.5887 61.8281 74.217 64.6919C76.5339 74.892 82.7385 82.2675 93.302 87.2498C97.0719 89.0152 100.449 89.2898 103.63 88.1129C115.254 83.7582 122.244 76.0689 125.071 64.6135C125.66 62.1419 127.113 60.965 129.352 61.0827C130.451 61.1611 131.747 61.0042 132.768 58.3757C134.064 55.0803 134.731 51.5495 134.928 47.6264C134.967 46.3318 134.771 45.351 134.339 44.8802C133.985 44.4879 133.278 44.2525 132.297 44.2133C130.726 44.1741 129.862 43.4287 129.391 42.8402C128.92 42.2518 128.448 41.1925 128.841 39.584C128.88 39.4271 128.92 39.1917 128.959 38.9564C128.998 38.7994 128.998 38.6033 129.037 38.4464C130.726 28.4424 128.213 20.6354 121.341 14.5546C115.175 9.02304 107.518 6.08072 98.0536 5.49225H97.9751C97.818 5.49225 97.7002 5.49225 97.5431 5.49225C93.8125 5.41379 93.0271 6.19841 92.5952 8.15996C92.3988 9.02305 91.6134 11.0238 88.5897 11.0238C88.5111 11.0238 88.4326 11.0238 88.3933 11.0238Z" fill="#D51820"/>
        <path d="M183.308 199.999L164.851 117.261C154.641 113.338 116.903 99.0971 116.51 98.9402L114.743 98.2732V82.8947H120.241V94.4678C128.33 97.5278 161.553 110.082 168.228 112.671L169.603 113.22L188.688 198.822L183.308 199.999Z" fill="#D51820"/>
        <path d="M17.1199 199.999L11.74 198.822L30.7857 113.22L32.1602 112.671C38.836 110.082 72.1366 97.5278 80.2262 94.4678V82.8947H85.7239V98.2732L83.9568 98.9402C83.5641 99.0971 45.7475 113.338 35.5374 117.261L17.1199 199.999Z" fill="#D51820"/>
        <path d="M59.4135 168.026H53.9158V199.411H59.4135V168.026Z" fill="#D51820"/>
        <path d="M140.502 168.026H135.004V199.411H140.502V168.026Z" fill="#D51820"/>
        <path d="M99.703 128.246L80.6572 97.842L85.291 94.9389L99.8208 118.085L115.175 94.8604L119.77 97.9204L99.703 128.246Z" fill="#D51820"/>
    </g>
    <defs>
        <clipPath id="clip0_160_23">
            <rect width="200" height="200" fill="white"/>
        </clipPath>
    </defs>
</svg>
