<svg width="200" height="199" viewBox="0 0 200 199" fill="none" xmlns="http://www.w3.org/2000/svg">
    <g clip-path="url(#clip0_160_38)">
        <path d="M100.372 140.059C63.6566 140.059 33.8228 110.303 33.8228 73.7048V6.10352e-05H167.078L166.961 73.5484C166.921 110.225 137.049 140.059 100.372 140.059ZM39.2578 5.47416V73.7048C39.2578 107.292 66.6673 134.585 100.333 134.585C134.038 134.585 161.447 107.214 161.447 73.5484L161.565 5.47416H39.2578Z" fill="#D51820"/>
        <path d="M42.3068 104.673C28.6998 104.673 17.5561 100.059 10.0878 91.3001C3.83173 83.9101 0.390869 73.8221 0.390869 62.8739V17.83H36.9891V23.3041H5.86496V62.8739C5.86496 79.609 15.4055 99.1985 42.3459 99.1985V104.673H42.3068Z" fill="#D51820"/>
        <path d="M159.021 104.673V99.1985C189.911 99.1985 193.274 73.8221 193.274 62.8739V23.3041H165.708V17.83H198.748V62.8739C198.748 70.7723 197.262 82.0724 190.224 91.1828C183.264 100.137 172.785 104.673 159.021 104.673Z" fill="#D51820"/>
        <path d="M158.199 195.621H152.725V166.296H48.5996V195.621H43.1255V160.821H158.199V195.621Z" fill="#D51820"/>
        <path d="M82.9272 136.382H77.4531V162.228H82.9272V136.382Z" fill="#D51820"/>
        <path d="M123.907 136.382H118.433V162.228H123.907V136.382Z" fill="#D51820"/>
        <path d="M199.999 193.314H-0.00146484V198.788H199.999V193.314Z" fill="#D51820"/>
    </g>
    <defs>
        <clipPath id="clip0_160_38">
            <rect width="200" height="198.788" fill="white"/>
        </clipPath>
    </defs>
</svg>
