<svg width="200" height="201" viewBox="0 0 200 201" fill="none" xmlns="http://www.w3.org/2000/svg">
    <g clip-path="url(#clip0_160_55)">
        <path d="M132.782 49.3026L112.524 124.88L117.879 126.315L138.137 50.738L132.782 49.3026Z" fill="#D51820"/>
        <path d="M57.4482 125.709H23.1953V119.333C23.1953 104.269 31.5121 95.4709 38.8508 87.7102C45.0657 81.1365 50.4328 75.4619 50.4328 66.9874C50.4328 56.4821 46.0713 55.0664 41.8084 55.0664C39.7263 55.0664 33.397 55.0664 33.397 66.668V71.7748H27.8762V66.668C27.8762 55.788 32.9554 49.5455 41.8084 49.5455C48.2599 49.5455 55.9536 52.5702 55.9536 66.9874C55.9536 77.6584 49.297 84.6935 42.8613 91.4999C35.909 98.8584 28.7161 106.485 28.7161 119.333V120.188H57.4482V125.709Z" fill="#D51820"/>
        <path d="M94.3589 125.938H88.838V114.932H58.6233V106.99L84.2991 51.3201H94.3589V109.411H104.789V114.932H94.3589V125.938ZM64.1441 109.411H88.838V56.8409H87.8325L64.1441 108.2V109.411Z" fill="#D51820"/>
        <path d="M142.891 50.1607V55.9734H170.357L149.149 126.81H155.443L176.777 55.4449L176.801 55.3621V50.1607H142.891Z" fill="#D51820"/>
        <path d="M185.626 200.804L139.993 177.988H0V-0.00396729H199.996V177.988H185.626V200.804ZM5.52083 172.467H141.298L180.105 191.873V172.467H194.475V5.51686H5.52083V172.467Z" fill="#D51820"/>
    </g>
    <defs>
        <clipPath id="clip0_160_55">
            <rect width="200" height="200.804" fill="white"/>
        </clipPath>
    </defs>
</svg>
