<svg width="20" height="27" viewBox="0 0 20 27" fill="none" xmlns="http://www.w3.org/2000/svg">
<path d="M13.8125 10C13.7786 11.151 13.3893 12.1159 12.6445 12.8945C11.8659 13.6393 10.901 14.0286 9.75 14.0625C8.59896 14.0286 7.63411 13.6393 6.85547 12.8945C6.11068 12.1159 5.72135 11.151 5.6875 10C5.72135 8.84896 6.11068 7.88411 6.85547 7.10547C7.63411 6.36068 8.59896 5.97135 9.75 5.9375C10.901 5.97135 11.8659 6.36068 12.6445 7.10547C13.3893 7.88411 13.7786 8.84896 13.8125 10ZM9.75 12.4375C10.4271 12.4036 11.0026 12.1667 11.4766 11.7266C11.9167 11.2526 12.1536 10.6771 12.1875 10C12.1536 9.32292 11.9167 8.7474 11.4766 8.27344C11.0026 7.83333 10.4271 7.59635 9.75 7.5625C9.07292 7.59635 8.4974 7.83333 8.02344 8.27344C7.58333 8.7474 7.34635 9.32292 7.3125 10C7.34635 10.6771 7.58333 11.2526 8.02344 11.7266C8.4974 12.1667 9.07292 12.4036 9.75 12.4375ZM19.5 10C19.4323 11.5234 18.8906 13.2839 17.875 15.2812C16.8255 17.2786 15.6406 19.2083 14.3203 21.0703C13 22.9661 11.8828 24.4727 10.9688 25.5898C10.6302 25.9961 10.224 26.1992 9.75 26.1992C9.27604 26.1992 8.86979 25.9961 8.53125 25.5898C7.61719 24.4727 6.48307 22.9661 5.12891 21.0703C3.80859 19.2083 2.64062 17.2786 1.625 15.2812C0.609375 13.2839 0.0677083 11.5234 0 10C0.0677083 7.22396 1.01562 4.92188 2.84375 3.09375C4.67188 1.26562 6.97396 0.317708 9.75 0.25C12.526 0.317708 14.8281 1.26562 16.6562 3.09375C18.4844 4.92188 19.4323 7.22396 19.5 10ZM9.75 1.875C7.44792 1.94271 5.53516 2.73828 4.01172 4.26172C2.48828 5.78516 1.69271 7.69792 1.625 10C1.625 10.8125 1.91276 11.8789 2.48828 13.1992C3.0638 14.5534 3.79167 15.9583 4.67188 17.4141C5.55208 18.8359 6.44922 20.1562 7.36328 21.375C8.27734 22.6276 9.07292 23.6771 9.75 24.5234C10.4271 23.6771 11.2227 22.6276 12.1367 21.375C13.0508 20.1562 13.9479 18.8359 14.8281 17.4141C15.7083 15.9583 16.4362 14.5534 17.0117 13.1992C17.5872 11.8789 17.875 10.8125 17.875 10C17.8073 7.69792 17.0117 5.78516 15.4883 4.26172C13.9648 2.73828 12.0521 1.94271 9.75 1.875Z" fill="white"/>
</svg>
